<svg xmlns="http://www.w3.org/2000/svg" xmlns:xlink="http://www.w3.org/1999/xlink" viewBox="0,0,256,256" width="480px" height="480px" fill-rule="nonzero"><g transform="translate(-10.66667,-10.66667) scale(1.08333,1.08333)"><g fill="#000000" fill-rule="nonzero" stroke="none" stroke-width="1" stroke-linecap="butt" stroke-linejoin="miter" stroke-miterlimit="10" stroke-dasharray="" stroke-dashoffset="0" font-family="none" font-weight="none" font-size="none" text-anchor="none" style="mix-blend-mode: normal"><g transform="scale(10.66667,10.66667)"><path d="M12,1c-4.38157,0 -8.16148,2.57247 -9.92773,6.28516l0.90234,0.42969c1.60575,-3.37531 5.03496,-5.71484 9.02539,-5.71484c3.99043,0 7.41964,2.33953 9.02539,5.71484l0.90234,-0.42969c-1.76625,-3.71269 -5.54616,-6.28516 -9.92773,-6.28516zM12,4c-1.404,0 -2.72214,0.364 -3.86914,1h0.86914h2c1.105,0 2,0.895 2,2c0,1.105 -0.895,2 -2,2h-2v3h2l1,3.5l1,-3.5h1h1l1,3.5l1,-3.5h1l-1.97266,6.9043c2.374,-1.387 3.97266,-3.9563 3.97266,-6.9043c0,-4.418 -3.582,-8 -8,-8zM9,12h-2v-6.24023c-1.827,1.467 -3,3.71523 -3,6.24023c0,4.418 3.582,8 8,8c1.404,0 2.72214,-0.364 3.86914,-1h-0.2168h-0.65234l-1.5,-5.25l-1.5,5.25h-0.34766h-0.65234zM9,6v2h1c0.552,0 1,-0.448 1,-1c0,-0.552 -0.448,-1 -1,-1zM2.97461,16.28516l-0.90234,0.42969c1.76625,3.71269 5.54616,6.28516 9.92773,6.28516c4.38157,0 8.16148,-2.57247 9.92773,-6.28516l-0.90234,-0.42969c-1.60575,3.37531 -5.03496,5.71484 -9.02539,5.71484c-3.99043,0 -7.41964,-2.33953 -9.02539,-5.71484z"></path></g></g></g></svg>